<svg width="80" height="98" viewBox="0 0 80 98" fill="none" xmlns="http://www.w3.org/2000/svg">
<path d="M80 30.575C80 39.198 75.2456 47.4413 66.9687 53.2066C62.591 56.2541 55.3729 59.8511 49.2237 59.8511V49.7993C53.5811 48.8002 57.6126 47.0616 60.8806 44.7834C66.4291 40.9366 69.4833 35.8807 69.4833 30.575C69.4833 20.6431 59.0176 12.3499 45.2532 10.6413V98H39.9898C17.9384 98 0 84.2812 0 67.415C0 58.792 4.75439 50.5487 13.0313 44.7834C17.2258 41.8658 23.4156 38.1988 30.0738 37.1996V48.3605C26.0015 49.3797 22.2143 51.0583 19.1092 53.2166C14.6093 56.344 11.7587 60.2608 10.8323 64.4574H27.6712V74.779H12.5426C16.2179 81.2337 24.5762 86.0797 34.7264 87.3587V0H39.9898C62.0514 0 80 13.7188 80 30.585V30.575Z" fill="white"/>
</svg>
